<?xml version="1.0" encoding="utf-8"?>
<!-- Generator: Adobe Illustrator 23.0.3, SVG Export Plug-In . SVG Version: 6.00 Build 0)  -->
<svg version="1.1" id="Layer_1" xmlns="http://www.w3.org/2000/svg" xmlns:xlink="http://www.w3.org/1999/xlink" x="0px" y="0px"
	 viewBox="0 0 53.87 53.87" style="enable-background:new 0 0 53.87 53.87;" xml:space="preserve">
<style type="text/css">
	.st0{fill:#FFFFFF;}
	.st1{stroke:#000000;stroke-miterlimit:10;}
</style>
<g>
	<circle class="st0" cx="26.94" cy="26.94" r="24.75"/>
	<path class="st1" d="M21.58,37.3L21.58,37.3c-1.26,0-2.29-1.02-2.29-2.29V18.86c0-1.26,1.02-2.29,2.29-2.29h0
		c1.26,0,2.29,1.02,2.29,2.29v16.16C23.86,36.28,22.84,37.3,21.58,37.3z"/>
	<path class="st1" d="M32.09,37.3L32.09,37.3c-1.26,0-2.29-1.02-2.29-2.29V18.86c0-1.26,1.02-2.29,2.29-2.29h0
		c1.26,0,2.29,1.02,2.29,2.29v16.16C34.38,36.28,33.35,37.3,32.09,37.3z"/>
</g>
</svg>
